Coordinates
version=1
nRows=7
nColumns=42
inDegrees=yes

Units are S.I. units (second, meters, Newtons, ...)
If the header above contains a line with 'inDegrees', this indicates whether rotational values are in degrees (yes) or radians (no).

endheader
time	pelvis_tilt	pelvis_list	pelvis_rotation	pelvis_tx	pelvis_ty	pelvis_tz	hip_flexion_r	hip_adduction_r	hip_rotation_r	knee_angle_r	knee_adduction_r	knee_angle_r_beta	ankle_angle_r	subtalar_angle_r	mtp_angle_r	hip_flexion_l	hip_adduction_l	hip_rotation_l	knee_angle_l	knee_adduction_l	knee_angle_l_beta	ankle_angle_l	subtalar_angle_l	mtp_angle_l	lumbar_extension	lumbar_bending	lumbar_rotation	arm_flex_r	arm_add_r	arm_rot_r	elbow_flex_r	pro_sup_r	wrist_flex_r	wrist_dev_r	arm_flex_l	arm_add_l	arm_rot_l	elbow_flex_l	pro_sup_l	wrist_flex_l	wrist_dev_l
      2.18000000	     -3.12876528	     -1.54985788	     -2.06242741	      0.34949763	      0.88846347	     -0.19159653	     16.22495377	     -8.87570354	     -2.54975402	     59.91522534	      9.57360602	      1.04571795	      6.78952437	     -7.23318799	     -7.50388935	     13.26443170	     -9.42123464	     -2.18089927	     16.59283010	     20.01426009	      0.28959952	      6.98143439	      2.51924668	     -7.50388935	    -12.40575904	      1.65073490	     -0.47419257	     -7.59207778	    -13.77530066	     -4.38401550	     19.02533632	     90.00000001	      0.00000000	      0.00000000	     -9.12001287	    -11.35010081	      1.94004971	     24.89352166	     90.00000001	      0.00000000	      0.00000000
      2.19000000	     -3.09304599	     -1.82364020	     -1.73648401	      0.35957202	      0.88949802	     -0.19187867	     17.24551483	     -8.39253809	     -3.01678364	     58.68264337	      9.28172778	      1.02420534	      8.29258299	     -7.66322997	     -7.50381486	     12.04817788	     -9.64375330	     -1.69010146	     15.51243912	     20.14334894	      0.27074314	      7.69523038	      3.29261219	     -7.50381486	    -12.42294353	      2.04719326	     -0.68188876	     -7.71934818	    -13.72083011	     -4.50071184	     18.91040463	     90.00000001	      0.00000000	      0.00000000	     -9.00217445	    -11.48627483	      2.18204208	     25.05263066	     90.00000001	      0.00000000	      0.00000000
      2.20000000	     -3.03101837	     -1.96418755	     -1.32427399	      0.36954115	      0.89033442	     -0.19227577	     18.15731295	     -8.19110576	     -3.33959337	     57.22277614	      9.36500962	      0.99872585	      8.86442104	     -7.90452048	     -7.50372461	     10.95109038	     -9.72958327	     -1.36856131	     14.74590761	     20.25479442	      0.25736464	      8.24472668	      3.74894642	     -7.50372461	    -12.47530992	      2.29477330	     -1.00582491	     -7.83748898	    -13.59710491	     -4.67666980	     18.81674061	     90.00000001	      0.00000000	      0.00000000	     -8.86986336	    -11.71098777	      2.50359063	     25.21303663	     90.00000001	      0.00000000	      0.00000000
      2.21000000	     -3.02608035	     -2.07172084	     -0.93710973	      0.37941554	      0.89089921	     -0.19263061	     19.10474373	     -8.00581599	     -3.55385260	     55.58911019	      9.50151942	      0.97021300	      9.33159718	     -8.31094779	     -7.50364342	      9.97650782	     -9.79615157	     -1.18909471	     14.11967856	     20.31516101	      0.24643488	      8.67283216	      4.08175685	     -7.50364342	    -12.46891831	      2.51267223	     -1.31814061	     -7.97855989	    -13.50822250	     -4.85460251	     18.77340745	     90.00000001	      0.00000000	      0.00000000	     -8.69562192	    -11.89989057	      2.80040797	     25.38787328	     90.00000001	      0.00000000	      0.00000000
      2.22000000	     -2.99221118	     -2.18212169	     -0.55147060	      0.38925833	      0.89128804	     -0.19293918	     19.92017193	     -7.83993962	     -3.66191843	     53.67928449	      9.78343751	      0.93688025	      9.64923815	     -8.99819773	     -7.50355289	      8.96294919	     -9.87195896	     -0.91133379	     13.44742827	     20.38680159	      0.23470190	      9.14973959	      4.42962148	     -7.50355289	    -12.49543362	      2.72741038	     -1.58052422	     -8.09188146	    -13.39416811	     -5.07588069	     18.72290067	     90.00000001	      0.00000000	      0.00000000	     -8.55802832	    -12.11388415	      3.16247376	     25.53077634	     90.00000001	      0.00000000	      0.00000000
      2.23000000	     -3.15679669	     -1.99395328	     -0.24162028	      0.39886223	      0.89105901	     -0.19328448	     21.10440392	     -8.08882307	     -4.12551120	     51.97121071	      9.78841227	      0.90706874	      9.68201455	     -8.94690340	     -7.50351750	      8.37055600	     -9.65587332	     -1.26178081	     13.36969684	     20.40410665	      0.23334523	      9.31107896	      4.48204258	     -7.50351750	    -12.30187212	      2.59628999	     -1.83159247	     -8.27063536	    -13.30290116	     -5.10338617	     18.87288674	     90.00000001	      0.00000000	      0.00000000	     -8.35377725	    -12.33420959	      3.19136782	     25.75284504	     90.00000001	      0.00000000	      0.00000000
      2.24000000	     -2.93369549	     -2.30457773	      0.19648536	      0.40892607	      0.89138049	     -0.19341083	     21.36973414	     -7.63330697	     -4.00568632	     49.31797194	     10.27153101	      0.86076099	      9.97626342	    -10.26945021	     -7.50343139	      7.07332339	     -9.99213706	     -0.51299627	     12.41486054	     20.55344804	      0.21668019	     10.09889014	      5.13875618	     -7.50343139	    -12.51564313	      3.04694631	     -2.12997165	     -8.37779084	    -13.16232243	     -5.36923812	     18.71272961	     90.00000001	      0.00000000	      0.00000000	     -8.26287939	    -12.51550336	      3.67734296	     25.80075198	     90.00000001	      0.00000000	      0.00000000
